<?xml version="1.0" encoding="UTF-8" standalone="no"?>
<!-- Created with Inkscape (http://www.inkscape.org/) -->

<svg
   version="1.1"
   id="svg824"
   width="947"
   height="1000"
   viewBox="0 0 947 1000"
   sodipodi:docname="logo.png"
   inkscape:version="1.1 (c68e22c387, 2021-05-23)"
   xmlns:inkscape="http://www.inkscape.org/namespaces/inkscape"
   xmlns:sodipodi="http://sodipodi.sourceforge.net/DTD/sodipodi-0.dtd"
   xmlns="http://www.w3.org/2000/svg"
   xmlns:svg="http://www.w3.org/2000/svg">
  <defs
     id="defs828" />
  <sodipodi:namedview
     id="namedview826"
     pagecolor="#ffffff"
     bordercolor="#666666"
     borderopacity="1.0"
     inkscape:pageshadow="2"
     inkscape:pageopacity="0.0"
     inkscape:pagecheckerboard="0"
     showgrid="false"
     inkscape:zoom="0.54659354"
     inkscape:cx="590.93271"
     inkscape:cy="439.99788"
     inkscape:window-width="1920"
     inkscape:window-height="991"
     inkscape:window-x="-9"
     inkscape:window-y="-9"
     inkscape:window-maximized="1"
     inkscape:current-layer="text2060" />
  <g
     inkscape:groupmode="layer"
     inkscape:label="Image"
     id="g830"
     style="display:inline">
    <g
       aria-label="Ψ"
       transform="scale(0.85681987,1.1671065)"
       id="text2060"
       style="font-size:553.714px;line-height:1.25;fill:#9c5d08;stroke-width:2.88393">
      <path
         d="m 460.96177,495.34064 -2.43331,-14.87025 q 19.73687,0 42.71817,1.08147 l 65.42909,0.8111 q 21.89982,0 52.18106,-1.35184 l 37.58117,-0.54073 -1.08147,15.14061 -29.7405,4.59626 q -22.71093,3.24442 -27.57755,9.19252 -4.86663,5.67773 -4.86663,39.47375 l 1.08147,40.01449 -0.54073,62.72541 0.54073,40.82559 q 38.93302,-2.16294 55.42548,-8.65178 16.49245,-6.48883 25.14423,-20.81835 8.65179,-14.59988 10.27399,-31.90344 1.89258,-17.30356 4.32589,-60.56247 2.16295,-37.3108 12.16657,-55.42547 10.00362,-18.11467 31.36271,-26.22571 21.35908,-8.38141 64.07725,-8.38141 l -0.27037,10.54435 q -18.6554,5.137 -25.95534,13.51841 -7.29994,8.11105 -7.29994,38.66265 0,57.85879 -5.67773,86.51781 -5.40736,28.38866 -23.52203,47.31443 -17.8443,18.92577 -51.09958,28.65902 -33.25529,9.73326 -88.95113,11.35547 l -0.54073,55.9662 q 0,33.79602 9.19251,38.39228 9.19252,4.32589 50.01811,11.0851 1.08148,0.54073 3.51479,2.16294 1.35184,3.51479 1.35184,8.65178 l -40.28486,0.81111 -43.2589,-0.81111 -45.69222,0.54074 -68.94388,-0.27037 h -7.02957 l -0.81111,-8.65178 q 4.86663,-1.62221 17.30357,-2.97405 38.12191,-5.9481 43.52927,-8.65178 5.40736,-2.70368 7.02957,-9.19252 1.62221,-6.48883 2.16295,-48.12553 l 1.08147,-38.93301 q -74.35124,-3.24442 -108.688,-17.30357 -34.33676,-14.05914 -48.66627,-44.88111 -14.32951,-30.82197 -14.32951,-93.54738 0,-34.33676 -1.62221,-43.52928 -1.62221,-9.46288 -7.84068,-15.14061 -6.21847,-5.9481 -23.52203,-11.62584 l -0.27037,-10.54435 q 44.07001,0 67.32168,10.81472 23.52203,10.81473 31.3627,30.28124 8.11105,19.4665 10.00362,71.10682 1.89258,45.69222 9.73326,63.53652 8.11104,17.8443 25.68497,25.95534 17.8443,7.84068 60.83284,10.27399 l -1.35184,-66.2402 0.8111,-67.32167 q 0,-40.01448 -3.24442,-47.31442 -3.24441,-7.29995 -17.84429,-9.19252 -11.62583,-1.35184 -19.46651,-3.24442 -14.87025,-1.35184 -20.81835,-3.78515 z"
         style="font-weight:bold;font-family:Garamond;-inkscape-font-specification:'Garamond Bold'"
         id="path6072" />
    </g>
    <circle
       style="opacity:1;fill:#efb28d;fill-opacity:1;stroke-width:1.04132"
       id="path16428"
       cx="115.30165"
       cy="623.38275"
       r="81.500648" />
    <circle
       style="fill:#efb28d;fill-opacity:1;stroke-width:1.04132"
       id="path16428-1"
       cx="811.12549"
       cy="624.83826"
       r="81.500648" />
    <circle
       style="fill:#efb28d;fill-opacity:1;stroke-width:1.52892"
       id="path16428-1-6"
       cx="609.96118"
       cy="386.15778"
       r="119.66364" />
    <circle
       style="fill:#efb28d;fill-opacity:1;stroke-width:1.52892"
       id="path16428-1-6-8"
       cx="319.53427"
       cy="385.51099"
       r="119.66364" />
    <circle
       style="fill:#efb28d;fill-opacity:1;stroke-width:1.52892"
       id="path16428-1-6-8-4"
       cx="477.3609"
       cy="143.59637"
       r="119.66364" />
  </g>
</svg>
